<?xml version="1.0" encoding="utf-8"?>
<!-- Generator: Adobe Illustrator 15.1.0, SVG Export Plug-In . SVG Version: 6.00 Build 0)  -->
<!DOCTYPE svg PUBLIC "-//W3C//DTD SVG 1.1//EN" "http://www.w3.org/Graphics/SVG/1.1/DTD/svg11.dtd">
<svg version="1.1" id="Livello_1" xmlns="http://www.w3.org/2000/svg" xmlns:xlink="http://www.w3.org/1999/xlink" x="0px" y="0px"
	 width="210.718px" height="42.156px" viewBox="0 0 210.718 42.156" enable-background="new 0 0 210.718 42.156"
	 xml:space="preserve">
<path fill="#A7A7A7" d="M84.92,3.722c1.775-0.592,3.847,0.709,4.082,2.543c0.356,1.775-1.065,3.609-2.84,3.729
	c-1.656,0.236-3.373-1.065-3.55-2.782C82.375,5.733,83.441,4.077,84.92,3.722L84.92,3.722z"/>
<path fill="#A7A7A7" d="M63.736,4.431c1.064,0,2.071,0,3.135,0c0.651,0,1.42,0.178,1.893,0.651c0.533,0.591,0.592,1.361,0.592,2.13
	c0,3.669,0,7.397,0,11.065c0.77-0.059,1.775,0.178,2.189-0.591c1.301-1.953,2.544-3.906,3.788-5.858c2.13,0,4.201,0,6.331,0
	c-1.658,2.543-3.373,5.029-5.089,7.514c-0.295,0.473-0.651,0.888-1.065,1.302c0.77,0.77,1.184,1.775,1.716,2.723
	c1.361,2.662,2.958,5.206,4.498,7.752c-1.657,0-3.373,0.058-5.03,0c-1.005,0-1.893-0.592-2.367-1.422
	c-1.124-2.012-2.13-4.083-3.253-6.094c-0.355-0.592-1.184-0.414-1.716-0.473c0,2.661,0,5.383,0,8.046c-1.894,0-3.729,0-5.622,0
	C63.736,22.243,63.736,13.307,63.736,4.431L63.736,4.431z"/>
<path fill="#A7A7A7" d="M97.404,13.958c1.244-1.42,3.019-2.367,4.913-2.544c2.011-0.178,4.202,0.119,5.798,1.479
	c1.419,1.243,1.953,3.136,2.072,4.97c0.058,4.438-0.06,8.816,0.058,13.256c-1.123,0-2.189,0.058-3.312-0.06
	c-0.77-0.06-1.54-0.415-1.954-1.125c-0.473-0.829-0.355-1.834-0.414-2.781c0-2.604,0-5.267,0-7.87c0-1.006-0.295-2.249-1.361-2.604
	c-1.479-0.415-3.078,0.059-4.202,1.124c-1.065,1.065-1.539,2.604-1.539,4.023c0,3.076,0,6.154,0,9.231c-1.833,0-3.728,0-5.561,0
	c0-6.451,0-12.9,0-19.29c1.36,0.059,2.781-0.237,4.082,0.295C96.813,12.36,97.228,13.189,97.404,13.958L97.404,13.958z"/>
<path fill="#A7A7A7" d="M143.265,14.432c2.719-2.722,6.98-3.551,10.59-2.604c1.422,0.414,2.9,1.064,3.67,2.367
	s0.354,2.899,0.473,4.32c-1.123,0-2.189,0.059-3.314-0.06c-0.77-0.059-1.301-0.769-1.537-1.42c-0.178-0.533-0.77-0.71-1.242-0.829
	c-1.955-0.473-4.203,0.355-5.268,2.13c-1.064,1.657-1.184,3.906-0.357,5.681c0.771,1.774,2.725,2.78,4.619,2.839
	c2.248,0.119,4.377-1.124,5.857-2.721c0.77,1.302,1.539,2.544,2.307,3.847c-3.787,4.438-11.303,4.911-15.562,0.947
	C139.535,25.201,139.419,18.218,143.265,14.432L143.265,14.432z"/>
<path fill="#A7A7A7" d="M186.875,14.254c1.125-1.361,2.721-2.485,4.555-2.722c1.777-0.237,3.729,0.059,5.09,1.301
	c0.65,0.533,1.006,1.244,1.479,1.953c1.303-1.834,3.375-3.077,5.562-3.254c2.012-0.178,4.201,0.296,5.564,1.894
	c1.299,1.539,1.537,3.609,1.594,5.562c0,4.083,0,8.166,0,12.25c-1.361-0.118-2.838,0.236-4.199-0.355
	c-1.006-0.474-1.184-1.717-1.184-2.723c0-2.959,0-5.917,0-8.935c-0.061-0.947-0.178-2.129-1.125-2.544
	c-1.242-0.474-2.662,0-3.609,0.888c-1.184,1.183-1.717,2.958-1.777,4.616c0,3.017,0,5.976,0,8.995c-1.773,0-3.549,0-5.383,0
	c0-3.788,0-7.575,0-11.363c0-0.946-0.117-2.012-0.77-2.721c-0.65-0.77-1.775-0.77-2.662-0.474c-1.242,0.474-2.012,1.598-2.484,2.722
	c-0.594,1.36-0.65,2.84-0.65,4.319c0,2.485,0,5.03,0,7.517c-1.775,0-3.492,0-5.268,0c0-6.392,0-12.841,0-19.291
	c1.361,0.06,2.84-0.236,4.141,0.414C186.519,12.656,186.697,13.485,186.875,14.254L186.875,14.254z"/>
<path fill="#A7A7A7" d="M83.264,11.828c1.36,0.059,2.781-0.177,4.083,0.237c1.006,0.354,1.479,1.42,1.479,2.426
	c0,5.562,0,11.124,0,16.688c-1.834,0-3.668,0-5.502,0C83.322,24.668,83.264,18.278,83.264,11.828L83.264,11.828z"/>
<path fill="#A7A7A7" d="M27.877,11.651c3.195-0.593,6.687,0.119,9.171,2.307c4.023,3.55,4.261,10.356,0.71,14.32
	c-3.846,4.319-11.539,4.319-15.326-0.059c-3.668-4.141-3.136-11.421,1.361-14.734C24.978,12.537,26.397,11.947,27.877,11.651
	L27.877,11.651z M28.765,16.325c-1.183,0.355-2.19,1.243-2.722,2.308c-1.184,2.485-0.709,5.977,1.775,7.456
	c1.953,1.124,4.793,0.591,6.036-1.361c1.361-2.13,1.243-5.148-0.355-7.101C32.375,16.325,30.422,15.852,28.765,16.325L28.765,16.325
	z"/>
<path fill="#A7A7A7" d="M49.357,11.651c2.782-0.534,5.858-0.119,8.225,1.479c2.012,1.302,3.432,3.492,3.964,5.799
	c0.71,3.136,0.059,6.686-2.071,9.112c-3.787,4.377-11.42,4.496-15.326,0.236c-3.491-3.787-3.373-10.355,0.296-13.964
	C45.748,12.953,47.522,12.065,49.357,11.651L49.357,11.651z M50.422,16.325c-1.597,0.414-2.781,1.834-3.136,3.432
	c-0.593,2.248,0,5.03,2.071,6.332c1.657,1.006,4.024,0.827,5.444-0.533c1.243-1.123,1.658-2.841,1.598-4.438
	c-0.059-1.539-0.651-3.077-1.894-4.023C53.321,16.147,51.783,15.97,50.422,16.325L50.422,16.325z"/>
<path fill="#A7A7A7" d="M167.583,11.591c3.195-0.533,6.688,0.178,9.053,2.426c3.906,3.55,4.141,10.356,0.592,14.261
	c-3.846,4.26-11.42,4.26-15.205,0c-3.492-3.846-3.314-10.533,0.473-14.083C163.857,12.775,165.691,11.947,167.583,11.591
	L167.583,11.591z M168.412,16.266c-1.184,0.296-2.248,1.184-2.781,2.249c-1.123,2.189-0.889,5.267,0.947,6.981
	c1.715,1.599,4.676,1.539,6.271-0.177c1.066-1.065,1.48-2.663,1.422-4.142c0-1.658-0.711-3.374-2.072-4.32
	C171.134,16.147,169.714,15.97,168.412,16.266L168.412,16.266z"/>
<path fill="#A7A7A7" d="M117.228,12.005c2.84-1.124,6.391-0.947,8.759,1.184c0.355-0.651,0.887-1.184,1.656-1.302
	c1.125-0.178,2.25-0.058,3.373-0.118c0,5.917,0,11.834,0,17.752c0,2.189-0.65,4.379-2.129,5.976
	c-1.954,2.13-4.854,3.019-7.693,3.077c-2.604,0.06-5.207-0.592-7.517-1.834c0.416-1.064,0.771-2.189,1.363-3.255
	c0.295-0.532,0.887-0.829,1.479-0.71c0.947,0.178,1.776,0.533,2.721,0.65c1.658,0.236,3.491,0.236,4.911-0.828
	c1.066-0.828,1.361-2.189,1.303-3.492c-1.776,1.48-4.203,1.718-6.391,1.363c-2.19-0.415-4.201-1.775-5.385-3.67
	c-1.597-2.544-1.893-5.739-1.301-8.639C112.909,15.556,114.684,13.011,117.228,12.005L117.228,12.005z M120.01,16.502
	c-1.243,0.474-1.954,1.775-2.13,3.018c-0.295,1.658-0.059,3.551,0.946,4.912c1.362,1.834,4.497,1.893,5.857,0.059
	c0.948-1.301,0.948-3.018,0.829-4.498c-0.118-1.301-0.651-2.721-1.893-3.313C122.554,16.147,121.193,16.088,120.01,16.502
	L120.01,16.502z"/>
<path fill="#A7A7A7" d="M0.007,7.272c-0.119-1.48,1.302-2.839,2.782-2.839c2.248,0,4.557,0,6.805,0
	c2.248,0.059,4.615,0.709,6.154,2.366c2.426,2.485,2.308,6.982-0.237,9.409c-0.295,0.295-0.591,0.532-0.888,0.769
	c1.302,0.65,2.486,1.598,3.137,2.899c1.183,2.367,1.005,5.385-0.474,7.632c-1.657,2.427-4.675,3.434-7.456,3.492
	c-3.254,0-6.508,0-9.763,0C0.007,23.071,0.007,15.201,0.007,7.272L0.007,7.272z M5.629,9.283c-0.473,0.415-0.473,1.006-0.533,1.598
	c0,1.42,0,2.839,0,4.32c1.419,0,2.781,0,4.201,0c0.829,0,1.657-0.354,2.189-1.066c1.005-1.361,0.947-3.668-0.473-4.733
	c-1.005-0.71-2.249-0.532-3.433-0.532C6.931,8.869,6.161,8.75,5.629,9.283L5.629,9.283z M5.807,19.579
	c-0.533,0.355-0.651,1.065-0.651,1.657c0,1.715,0,3.492,0,5.208c1.597,0,3.196,0,4.793,0c1.124,0,2.189-0.593,2.721-1.599
	c0.769-1.478,0.651-3.609-0.71-4.733c-1.065-0.887-2.604-0.828-3.965-0.828C7.285,19.342,6.457,19.165,5.807,19.579L5.807,19.579z"
	/>
<path fill="#A7A7A7" d="M135.513,24.964c1.834-0.591,3.963,0.887,4.082,2.84c0.178,1.716-1.184,3.373-2.898,3.491
	c-1.719,0.237-3.375-1.123-3.551-2.84C132.91,26.916,133.974,25.377,135.513,24.964L135.513,24.964z"/>
</svg>
