<?xml version="1.0" encoding="utf-8"?>
<!-- Generator: Adobe Illustrator 15.1.0, SVG Export Plug-In . SVG Version: 6.00 Build 0)  -->
<!DOCTYPE svg PUBLIC "-//W3C//DTD SVG 1.1//EN" "http://www.w3.org/Graphics/SVG/1.1/DTD/svg11.dtd">
<svg version="1.1"
	 id="svg2" xmlns:rdf="http://www.w3.org/1999/02/22-rdf-syntax-ns#" xmlns:cc="http://creativecommons.org/ns#" xmlns:dc="http://purl.org/dc/elements/1.1/"
	 xmlns="http://www.w3.org/2000/svg" xmlns:xlink="http://www.w3.org/1999/xlink" x="0px" y="0px" width="336.5px"
	 height="79.262px" viewBox="0 0 336.5 79.262" enable-background="new 0 0 336.5 79.262" xml:space="preserve">
<g id="g4346" transform="matrix(1.25 0 0 -1.25 -607.14 914.86)">
	<g id="g4352" transform="translate(510.41 323.86)">
		<path id="path4354" fill="#A7A7A7" d="M95.933,362.24h-8.885c-0.043,0-0.066,0.005-0.089,0.038l-7.659,9.347l-7.661-9.347
			c-0.017-0.032-0.049-0.038-0.084-0.038h-7.118c-0.043,0-0.077,0.021-0.107,0.069c-0.014,0.025-0.012,0.076,0.015,0.11
			l11.281,13.852l-11.15,13.721c-0.034,0.044-0.034,0.087-0.018,0.13c0.018,0.025,0.062,0.065,0.098,0.065h8.891
			c0.024,0,0.062-0.016,0.082-0.054l6.718-8.327l6.836,8.331c0.02,0.034,0.053,0.05,0.084,0.05h7.247
			c0.042,0,0.086-0.04,0.104-0.065c0.018-0.044,0.013-0.091-0.018-0.13l-10.581-12.709l12.088-14.864
			c0.027-0.034,0.04-0.085,0.015-0.11C96.01,362.261,95.969,362.24,95.933,362.24"/>
	</g>
	<g id="g4356" transform="translate(577.97 356.2)">
		<path id="path4358" fill="#A7A7A7" d="M76.463,352.919c-3.935,0-6.626-2.387-7.391-6.541h13.39v0.271
			C82.462,349.968,80.013,352.919,76.463,352.919 M89.367,342.122c-0.023-0.028-0.063-0.053-0.099-0.053H68.927
			c0.426-4.735,3.5-7.433,8.475-7.433c3.068,0,6.322,1.046,10.919,3.49c0.084,0.049,0.173-0.02,0.173-0.106l-0.013-6.257
			c-0.006-0.052-0.029-0.084-0.064-0.095c-4.281-1.802-8.577-3.033-11.953-3.033c-8.756,0-15.109,6.383-15.109,15.175
			c0,8.787,6.352,15.17,15.109,15.17c7.987,0,13.12-5.382,13.12-12.785C89.584,344.998,89.377,342.211,89.367,342.122"/>
	</g>
	<g id="g4360" transform="translate(654.14 371.23)">
		<path id="path4362" fill="#A7A7A7" d="M54.51,348.588c-2.495,0-4.523,1.998-4.523,4.455c0,2.53,2.028,4.585,4.523,4.585
			c2.494,0,4.526-2.055,4.526-4.585C59.036,350.586,57.004,348.588,54.51,348.588 M50.857,314.873c-0.07,0-0.115,0.041-0.115,0.113
			v27.716c0,0.057,0.04,0.102,0.089,0.115h7.346c0.06-0.012,0.091-0.057,0.091-0.115v-27.716c0-0.072-0.048-0.113-0.105-0.113
			H50.857z"/>
	</g>
	<g id="g4364" transform="translate(529.28 329.72)">
		<path id="path4366" fill="#A7A7A7" d="M90.495,360.551c-1.323,0-2.68,0.188-4.237,0.603l0.016,17.785
			c1.822,0.579,3.415,0.854,4.986,0.854c5.091,0,8.508-3.757,8.508-9.336C99.767,364.437,96.127,360.551,90.495,360.551
			 M92.493,385.456c-2.071,0-4.167-0.377-6.361-1.133H78.82c-0.063,0-0.102-0.051-0.102-0.116v-45.45
			c2.206,0.302,4.911,1.085,7.54,2.959l-0.002,13.827c1.798-0.255,3.287-0.427,4.726-0.427c10.009,0,16.486,5.998,16.486,15.292
			C107.469,379.268,101.309,385.456,92.493,385.456"/>
	</g>
	<g id="g4368" transform="translate(630.22 332.96)">
		<path id="path4370" fill="#A7A7A7" d="M61.405,359.616c-2.289-1.201-4.334-1.771-6.254-1.771c-4.536,0-7.252,3.204-7.252,8.573
			c0,6.204,3.469,10.22,8.833,10.22c1.48,0,2.921-0.364,4.673-1.156V359.616z M61.405,395.762v-14.508
			c-2.145,0.611-4.034,0.897-5.941,0.897c-8.714,0-15.29-6.572-15.29-15.293c0-8.681,5.803-14.979,13.787-14.979
			c2.763,0,5.353,0.695,8.397,2.259l-0.006-2.504c2.009,0.384,4.317,1.187,6.594,2.802v44.295
			C66.711,398.432,64.06,397.683,61.405,395.762"/>
	</g>
	<g id="g4372" transform="translate(695.17 333.04)">
		<path id="path4374" fill="#A7A7A7" d="M42.687,359.593c-2.213-1.276-4.112-1.895-5.806-1.895c-4.854,0-7.763,3.195-7.763,8.58
			c0,6.114,3.425,10.219,8.518,10.219c1.363,0,3.02-0.523,5.051-1.593V359.593z M50.236,381.342c0,0.173-0.146,0.311-0.316,0.311
			l-5.934-0.01c-0.178,0-0.327-0.147-0.327-0.315v-1.013h-0.148c-2.742,1.201-5.083,1.758-7.383,1.758
			c-8.212,0-14.655-6.815-14.655-15.541c0-8.816,5.765-14.731,14.345-14.731c2.291,0,5.233,0.156,7.984,3.323v-3.566
			c1.947,0.413,4.245,1.24,6.426,2.81L50.236,381.342z"/>
	</g>
	<g id="g4376" transform="translate(437.61 333.6)">
		<path id="path4378" fill="#A7A7A7" d="M116.913,359.432l18.44,0.006c-0.275-2.062-0.975-4.473-2.575-6.934h-15.824l-3.15,0.002
			c-0.064,0-0.132-0.002-0.209-0.002c-2.349,0-4.279,1.82-4.509,4.121c-0.011,0.033-0.026,0.069-0.029,0.1v18.888v17.483
			c0.003,0.026,0.018,0.066,0.029,0.088c0.23,2.305,2.16,4.132,4.509,4.132c0.076,0,0.145-0.009,0.209-0.009l21.509,0.005
			c-0.282-2.059-0.979-4.529-2.577-6.983h-15.823v-9.902h15.664c0.066,0,0.113-0.046,0.113-0.107v-6.867
			c0-0.059-0.047-0.109-0.113-0.109h-15.664v-13.905V359.432z"/>
	</g>
	<g id="g4380" transform="translate(405.18 323.06)">
		<path id="path4382" fill="#A7A7A7" d="M129.564,358.768c-1.427,0-2.31,1.116-2.31,2.48c0,1.462,1.012,2.48,2.31,2.48
			c1.284,0,2.293-1.019,2.293-2.48S130.849,358.768,129.564,358.768 M129.564,364.008c-1.46,0-2.712-1.098-2.712-2.759
			c0-1.568,1.128-2.75,2.712-2.75c1.443,0,2.696,1.093,2.696,2.75C132.26,362.909,131.007,364.008,129.564,364.008"/>
	</g>
	<g id="g4384" transform="translate(404.02 327.92)">
		<path id="path4386" fill="#A7A7A7" d="M130.078,356.617v1.003h0.677c0.345,0,0.749-0.049,0.749-0.466
			c0-0.499-0.375-0.538-0.799-0.538H130.078z M132.005,357.087c0,0.66-0.405,0.938-1.189,0.938h-1.237v-3.263h0.538v1.396h0.5
			l0.845-1.396h0.606l-0.914,1.432C131.645,356.254,132.005,356.495,132.005,357.087"/>
	</g>
	<g id="g4388" transform="translate(714.3 356.64)">
		<path id="path4390" fill="#A7A7A7" d="M37.174,352.793c-1.825,0-2.955,1.425-2.955,3.168c0,1.867,1.292,3.168,2.955,3.168
			c1.638,0,2.928-1.301,2.928-3.168C40.102,354.094,38.812,352.793,37.174,352.793 M37.174,359.484
			c-1.867,0-3.464-1.404-3.464-3.524c0-2.003,1.439-3.512,3.464-3.512c1.838,0,3.438,1.399,3.438,3.512
			C40.612,358.08,39.012,359.484,37.174,359.484"/>
	</g>
	<g id="g4392" transform="translate(713.13 361.5)">
		<path id="path4394" fill="#A7A7A7" d="M37.512,351.392v1.279h0.865c0.44,0,0.958-0.061,0.958-0.594c0-0.636-0.48-0.686-1.02-0.686
			H37.512z M39.974,351.991c0,0.841-0.519,1.199-1.519,1.199h-1.582v-4.167h0.684v1.78h0.642l1.079-1.78h0.774l-1.165,1.829
			C39.511,350.927,39.974,351.234,39.974,351.991"/>
	</g>
	<g id="g4396" transform="translate(371.76 377.05)">
		<path id="path4398" fill="#A7A7A7" d="M144.359,334.867l-1.047,2.964l-8.881,11.867l1.595,0.397l15.314-13.236l9.009,2.578
			c1.059,0.271,2.259,0.332,3.176,0.325c-2.832,6.108-8.013,11.122-14.855,13.558c-13.525,4.82-28.395-2.248-33.209-15.776
			c-1.488-4.19-1.839-8.505-1.216-12.611l21.584,7.495L144.359,334.867z"/>
	</g>
	<g id="g4400" transform="translate(407.86 381.64)">
		<path id="path4402" fill="#A7A7A7" d="M128.378,332.836c-0.793-0.511-1.954-1.189-3.109-1.558l-9.03-2.577l-6.025-19.34
			l-1.565-0.509l1.275,14.771l-0.712,3.068l-8.459-2.416l-22.369-5.266c1.775-8.605,7.866-16.103,16.748-19.267
			c13.527-4.822,28.391,2.248,33.206,15.77C130.412,321.344,130.278,327.421,128.378,332.836"/>
	</g>
	<g id="g4404" transform="translate(373.47 370.62)">
	</g>
</g>
</svg>
