<?xml version="1.0" encoding="utf-8"?>
<!-- Generator: Adobe Illustrator 15.1.0, SVG Export Plug-In . SVG Version: 6.00 Build 0)  -->
<!DOCTYPE svg PUBLIC "-//W3C//DTD SVG 1.1//EN" "http://www.w3.org/Graphics/SVG/1.1/DTD/svg11.dtd">
<svg version="1.1" id="Livello_1" xmlns="http://www.w3.org/2000/svg" xmlns:xlink="http://www.w3.org/1999/xlink" x="0px" y="0px"
	 width="688.604px" height="129.109px" viewBox="0 0 688.604 129.109" enable-background="new 0 0 688.604 129.109"
	 xml:space="preserve">
<path fill="#A7A7A7" d="M61.1,34.697c0-6.56,0.989-12.041,2.966-16.534c1.438-3.235,3.415-6.2,5.931-8.806
	c2.605-2.606,5.392-4.583,8.356-5.842C82.396,1.809,86.979,1,92.281,1c9.436,0,17.073,2.966,22.734,8.807
	c5.661,5.931,8.537,14.107,8.537,24.621c0,10.424-2.786,18.511-8.447,24.441c-5.661,5.841-13.209,8.806-22.734,8.806
	c-9.525,0-17.163-2.965-22.824-8.806C63.886,53.028,61.1,45.031,61.1,34.697z M1.613,66.507V2.168h13.029v25.341h25.34V2.168h13.03
	v64.339h-13.03V38.382h-25.34v28.125H1.613z M130.471,66.507l0-63.8H143.5l0,52.928h32.259v10.872H130.471z M184.565,66.507V2.168
	h13.03v64.339H184.565z M209.995,2.168h23.723c5.302,0,9.346,0.449,12.222,1.258c3.773,1.079,6.919,3.056,9.614,5.932
	c2.696,2.785,4.763,6.29,6.2,10.423c1.349,4.044,2.067,9.166,2.067,15.187c0,5.302-0.629,9.885-1.978,13.658
	c-1.617,4.673-3.863,8.447-6.829,11.412c-2.246,2.157-5.302,3.864-9.165,5.122c-2.876,0.898-6.65,1.348-11.502,1.348h-24.353V2.168z
	 M330.137,66.507h-14.018l-5.571-14.646h-25.79l-5.391,14.646h-13.749l24.98-64.339h13.749L330.137,66.507z M342.089,66.507V39.46
	L318.545,2.168h15.187l15.187,25.521l14.826-25.521h15.007L355.118,39.55v26.957H342.089z M74.489,34.338
	c0,7.278,1.708,12.76,5.032,16.534c3.415,3.773,7.638,5.661,12.85,5.661c5.212,0,9.436-1.888,12.76-5.571
	c3.325-3.774,5.032-9.346,5.032-16.804s-1.618-12.939-4.853-16.534c-3.235-3.685-7.548-5.481-12.94-5.481
	c-5.301,0-9.705,1.797-12.939,5.481C76.106,21.309,74.489,26.88,74.489,34.338z M223.025,13.041v42.594h9.704
	c3.595,0,6.2-0.18,7.818-0.63c2.066-0.539,3.773-1.438,5.212-2.695c1.348-1.258,2.516-3.325,3.324-6.2
	c0.898-2.876,1.348-6.739,1.348-11.771c0-4.942-0.449-8.807-1.348-11.412c-0.809-2.696-2.066-4.763-3.594-6.2
	c-1.618-1.527-3.595-2.517-6.021-3.056c-1.797-0.449-5.391-0.629-10.603-0.629H223.025z M306.324,40.987l-8.896-23.812
	l-8.717,23.812H306.324z"/>
<rect x="1" y="97.603" fill="#A7A7A7" width="373.559" height="29.209"/>
<polyline fill="#A7A7A7" points="431.334,129.109 414.979,117.228 398.625,129.109 404.871,109.884 388.518,98.002 408.732,98.002 
	414.979,78.775 421.227,98.002 441.442,98.002 425.087,109.884 431.334,129.109 "/>
<polyline fill="#A7A7A7" points="493.124,129.109 476.771,117.228 460.415,129.109 466.662,109.884 450.307,98.002 470.523,98.002 
	476.771,78.775 483.017,98.002 503.232,98.002 486.877,109.884 493.124,129.109 "/>
<polyline fill="#A7A7A7" points="554.915,129.109 538.561,117.228 522.206,129.109 528.452,109.884 512.098,98.002 532.313,98.002 
	538.561,78.775 544.808,98.002 565.022,98.002 548.668,109.884 554.915,129.109 "/>
<polyline fill="#A7A7A7" points="616.705,129.109 600.352,117.228 583.996,129.109 590.243,109.884 573.888,98.002 594.104,98.002 
	600.352,78.775 606.598,98.002 626.813,98.002 610.458,109.884 616.705,129.109 "/>
<polyline fill="#A7A7A7" points="678.495,129.109 662.14,117.228 645.786,129.109 652.032,109.884 635.678,98.002 655.894,98.002 
	662.14,78.775 668.387,98.002 688.604,98.002 672.248,109.884 678.495,129.109 "/>
<path fill="#A7A7A7" d="M429.522,43.953l8.536,2.156c-1.797,7.009-5.032,12.311-9.615,15.995
	c-4.672,3.684-10.333,5.481-16.982,5.481c-6.92,0-12.581-1.438-16.894-4.223c-4.313-2.875-7.639-6.918-9.885-12.31
	c-2.247-5.302-3.415-11.053-3.415-17.163c0-6.739,1.258-12.58,3.864-17.522c2.516-5.032,6.2-8.807,10.873-11.413
	c4.763-2.606,9.885-3.864,15.636-3.864c6.38,0,11.771,1.617,16.174,4.942c4.403,3.235,7.459,7.817,9.166,13.748l-8.357,1.978
	c-1.527-4.673-3.684-8.088-6.47-10.154c-2.875-2.156-6.38-3.235-10.692-3.235c-4.942,0-9.076,1.169-12.401,3.595
	c-3.324,2.336-5.661,5.482-7.009,9.526c-1.348,3.953-1.977,8.087-1.977,12.311c0,5.481,0.809,10.244,2.426,14.377
	c1.527,4.043,4.044,7.099,7.369,9.076c3.324,2.066,7.009,3.055,10.872,3.055c4.763,0,8.807-1.348,12.132-4.133
	C426.107,53.477,428.354,49.343,429.522,43.953z M613.824,43.953l8.536,2.156c-1.797,7.009-5.032,12.311-9.615,15.995
	c-4.672,3.684-10.333,5.481-16.983,5.481c-6.919,0-12.58-1.438-16.893-4.223c-4.313-2.876-7.639-6.919-9.885-12.311
	c-2.247-5.302-3.415-11.053-3.415-17.163c0-6.739,1.258-12.58,3.864-17.522c2.516-5.032,6.2-8.807,10.873-11.412
	c4.763-2.606,9.884-3.864,15.635-3.864c6.381,0,11.772,1.617,16.175,4.942c4.403,3.235,7.459,7.817,9.166,13.748l-8.357,1.978
	c-1.527-4.673-3.684-8.088-6.47-10.154c-2.875-2.156-6.38-3.235-10.693-3.235c-4.941,0-9.075,1.169-12.4,3.595
	c-3.324,2.336-5.661,5.481-7.009,9.525c-1.348,3.953-1.977,8.087-1.977,12.311c0,5.481,0.809,10.244,2.426,14.377
	c1.527,4.044,4.044,7.1,7.368,9.076c3.325,2.066,7.01,3.055,10.873,3.055c4.763,0,8.807-1.348,12.131-4.133
	C610.409,53.477,612.655,49.343,613.824,43.953z M447.135,66.507V2.167h8.536v26.509h33.248V2.167h8.536v64.339h-8.536V36.224
	h-33.248v30.283H447.135z M510.036,66.507V2.167h46.457v7.549h-37.921v19.769h35.494v7.548h-35.494v21.926h39.448v7.548H510.036z
	 M630.718,66.507V2.167h8.536v31.9l31.99-31.9h11.502l-26.958,26.06l28.126,38.28h-11.232l-22.914-32.439l-10.514,10.154v22.285
	H630.718z"/>
</svg>
