<?xml version="1.0" encoding="utf-8"?>
<!-- Generator: Adobe Illustrator 15.1.0, SVG Export Plug-In . SVG Version: 6.00 Build 0)  -->
<!DOCTYPE svg PUBLIC "-//W3C//DTD SVG 1.1//EN" "http://www.w3.org/Graphics/SVG/1.1/DTD/svg11.dtd">
<svg version="1.1"
	 id="Livello_1" xmlns:inkscape="http://www.inkscape.org/namespaces/inkscape" xmlns:cc="http://creativecommons.org/ns#" xmlns:sodipodi="http://sodipodi.sourceforge.net/DTD/sodipodi-0.dtd" xmlns:dc="http://purl.org/dc/elements/1.1/" xmlns:rdf="http://www.w3.org/1999/02/22-rdf-syntax-ns#" xmlns:svg="http://www.w3.org/2000/svg"
	 xmlns="http://www.w3.org/2000/svg" xmlns:xlink="http://www.w3.org/1999/xlink" x="0px" y="0px" width="384.039px"
	 height="384.037px" viewBox="0 0 384.039 384.037" enable-background="new 0 0 384.039 384.037" xml:space="preserve">
<g transform="translate(0,-952.36218)">
	<g transform="translate(20.998031,959.86021)">
		<g transform="translate(-11.001968,2.498033)">
			<path fill="#29C5D4" d="M182.023-9.996C75.894-9.996-9.996,76.063-9.996,182.022c0,106.129,85.89,192.019,192.019,192.019
				c105.959,0,192.02-85.89,192.02-192.019C374.043,76.063,287.982-9.996,182.023-9.996z"/>
		</g>
	</g>
</g>
<polygon fill="#FFFFFF" points="191.014,77.018 199.023,77.018 199.023,182.013 304.02,182.013 304.02,190.023 199.023,190.023 
	199.023,295.019 191.014,295.019 191.014,190.024 86.019,190.024 86.019,182.014 191.014,182.014 "/>
</svg>
