<?xml version="1.0" encoding="utf-8"?>
<!-- Generator: Adobe Illustrator 15.1.0, SVG Export Plug-In . SVG Version: 6.00 Build 0)  -->
<!DOCTYPE svg PUBLIC "-//W3C//DTD SVG 1.1//EN" "http://www.w3.org/Graphics/SVG/1.1/DTD/svg11.dtd">
<svg version="1.1" id="Layer_1" xmlns="http://www.w3.org/2000/svg" xmlns:xlink="http://www.w3.org/1999/xlink" x="0px" y="0px"
	 width="24px" height="24px" viewBox="0 0 24 24" enable-background="new 0 0 24 24" xml:space="preserve">
<g>
	<path d="M12.689,5.605c-1.604,0-2.911,1.307-2.911,2.911c0,1.605,1.307,2.911,2.911,2.911c1.605,0,2.911-1.306,2.911-2.911
		C15.601,6.912,14.295,5.605,12.689,5.605z M12.689,10.595c-1.146,0-2.079-0.932-2.079-2.079c0-1.146,0.933-2.08,2.079-2.08
		c1.146,0,2.079,0.934,2.079,2.08C14.769,9.663,13.836,10.595,12.689,10.595z"/>
	<path d="M18.255,2.952c-1.506-1.506-3.509-2.336-5.639-2.336s-4.132,0.83-5.639,2.336c-2.787,2.787-3.134,8.03-0.75,11.207
		l6.389,9.227l6.379-9.214C21.388,10.981,21.042,5.738,18.255,2.952z M18.321,13.685l-5.705,8.238l-5.714-8.25
		C4.74,10.79,5.05,6.054,7.566,3.539c1.35-1.349,3.143-2.092,5.05-2.092s3.701,0.743,5.05,2.092
		C20.183,6.054,20.492,10.79,18.321,13.685z"/>
</g>
</svg>
