<?xml version="1.0" encoding="utf-8"?>
<!-- Generator: Adobe Illustrator 15.1.0, SVG Export Plug-In . SVG Version: 6.00 Build 0)  -->
<!DOCTYPE svg PUBLIC "-//W3C//DTD SVG 1.1//EN" "http://www.w3.org/Graphics/SVG/1.1/DTD/svg11.dtd">
<svg version="1.1" id="Livello_1" xmlns="http://www.w3.org/2000/svg" xmlns:xlink="http://www.w3.org/1999/xlink" x="0px" y="0px"
	 width="292.229px" height="48.072px" viewBox="0 0 292.229 48.072" enable-background="new 0 0 292.229 48.072"
	 xml:space="preserve">
<g>
	<circle fill="#A7A7A7" cx="20.373" cy="27.214" r="3.315"/>
	<circle fill="#A7A7A7" cx="60.295" cy="27.214" r="3.315"/>
	<g>
		<path fill="#A7A7A7" d="M13.451,20.292c-1.849,1.849-2.867,4.307-2.867,6.921s1.018,5.073,2.867,6.921
			c1.849,1.85,4.307,2.867,6.921,2.867c5.397,0,9.789-4.391,9.789-9.788s-4.391-9.789-9.789-9.789
			C17.758,17.425,15.3,18.443,13.451,20.292z M15.572,32.014c-1.282-1.281-1.988-2.986-1.988-4.8s0.706-3.518,1.988-4.8
			s2.987-1.988,4.8-1.988c3.743,0,6.789,3.045,6.789,6.789s-3.045,6.788-6.789,6.788C18.559,34.002,16.854,33.297,15.572,32.014z"/>
	</g>
	<g>
		<path fill="#A7A7A7" d="M53.374,20.292c-1.849,1.849-2.867,4.307-2.867,6.921s1.018,5.073,2.867,6.921
			c1.849,1.85,4.307,2.867,6.921,2.867c5.397,0,9.789-4.391,9.789-9.788s-4.391-9.789-9.789-9.789
			C57.681,17.425,55.223,18.443,53.374,20.292z M55.495,32.014c-1.282-1.281-1.988-2.986-1.988-4.8s0.706-3.518,1.988-4.8
			s2.987-1.988,4.8-1.988c3.743,0,6.789,3.045,6.789,6.789s-3.045,6.788-6.789,6.788C58.482,34.002,56.777,33.297,55.495,32.014z"/>
	</g>
	<g>
		<path fill="none" d="M60.295,10.841c-9.028,0-16.373,7.345-16.373,16.373c0,9.028,7.345,16.372,16.373,16.372
			s16.373-7.344,16.373-16.372C76.667,18.186,69.323,10.841,60.295,10.841z"/>
		<path fill="none" d="M20.373,10.841C11.345,10.841,4,18.186,4,27.214c0,9.028,7.345,16.372,16.373,16.372
			s16.373-7.344,16.373-16.372C36.745,18.186,29.4,10.841,20.373,10.841z"/>
		<path fill="#A7A7A7" d="M76.069,14.342c0.769-2.288,1.943-4.982,3.566-6.606H66.257c-0.222-0.068-0.453-0.114-0.677-0.175
			C64.853,6.421,59.877,0,39.989,0C18.163,0,14.294,7.736,14.294,7.736H0.342c1.78,1.78,3.017,4.843,3.774,7.251
			C1.544,18.397,0,22.623,0,27.214c0,11.233,9.139,20.372,20.373,20.372c6.227,0,11.803-2.814,15.543-7.232l4.625,6.477l3.992-6.729
			c3.739,4.564,9.415,7.484,15.762,7.484c11.233,0,20.373-9.139,20.373-20.372C80.667,22.335,78.94,17.854,76.069,14.342z
			 M20.373,43.586C11.345,43.586,4,36.242,4,27.214c0-9.028,7.345-16.373,16.373-16.373s16.373,7.345,16.373,16.373
			C36.745,36.242,29.4,43.586,20.373,43.586z M60.295,43.586c-9.028,0-16.373-7.344-16.373-16.372
			c0-9.028,7.345-16.373,16.373-16.373s16.373,7.345,16.373,16.373C76.667,36.242,69.323,43.586,60.295,43.586z"/>
	</g>
	<path fill="#A7A7A7" d="M41.231,2.349c13.952,0,19.202,5.802,19.202,5.802S45.514,5.664,40.541,24.037
		C35.568,5.664,20.649,8.15,20.649,8.15s5.25-5.802,19.202-5.802H41.231z"/>
	<path fill="#D8D8D8" d="M95.733,12.162v5.22h5.67v3.015h-5.67v11.745c0,2.7,0.765,4.229,2.97,4.229c1.08,0,1.71-0.09,2.295-0.27
		l0.18,3.016c-0.765,0.27-1.98,0.539-3.51,0.539c-1.845,0-3.33-0.63-4.275-1.664c-1.08-1.216-1.53-3.15-1.53-5.716v-11.88h-3.375
		v-3.015h3.375v-4.005L95.733,12.162z"/>
	<path fill="#D8D8D8" d="M104.958,24.177c0-2.565-0.045-4.77-0.18-6.795h3.465l0.18,4.275h0.135c0.99-2.925,3.42-4.77,6.075-4.77
		c0.405,0,0.72,0.045,1.08,0.135v3.69c-0.45-0.045-0.855-0.09-1.395-0.09c-2.79,0-4.77,2.115-5.31,5.041
		c-0.09,0.584-0.135,1.215-0.135,1.89v11.61h-3.96L104.958,24.177z"/>
	<path fill="#D8D8D8" d="M120.752,13.376c-1.485,0-2.475-1.17-2.475-2.565s1.035-2.52,2.565-2.52c1.53,0,2.52,1.125,2.52,2.52
		s-0.99,2.565-2.565,2.565H120.752z M118.863,39.162V17.381h3.96v21.781H118.863z"/>
	<path fill="#D8D8D8" d="M128.448,24.492c0-2.791-0.045-5.041-0.18-7.111h3.555l0.225,3.735h0.09c1.575-2.7,4.185-4.23,7.695-4.23
		c5.31,0,9.27,4.455,9.27,11.07c0,7.83-4.815,11.699-9.9,11.699c-2.925,0-5.4-1.26-6.705-3.42h-0.09v11.836h-3.96V24.492z
		 M132.408,30.297c0,0.539,0.045,1.125,0.18,1.619c0.675,2.746,3.105,4.636,5.895,4.636c4.185,0,6.615-3.42,6.615-8.415
		c0-4.365-2.25-8.1-6.435-8.1c-2.7,0-5.265,1.89-6.03,4.86c-0.09,0.54-0.225,1.125-0.225,1.62V30.297z"/>
	<path fill="#D8D8D8" d="M168.451,33.941c0,1.891,0.091,3.735,0.315,5.221h-3.555l-0.36-2.746h-0.135
		c-1.17,1.711-3.555,3.24-6.66,3.24c-4.41,0-6.66-3.104-6.66-6.255c0-5.265,4.68-8.145,13.096-8.1v-0.45
		c0-1.8-0.496-5.085-4.95-5.04c-2.07,0-4.185,0.585-5.716,1.62l-0.899-2.655c1.8-1.125,4.455-1.89,7.2-1.89
		c6.705,0,8.324,4.545,8.324,8.91V33.941z M164.582,28.047c-4.32-0.09-9.225,0.675-9.225,4.904c0,2.61,1.709,3.78,3.689,3.78
		c2.88,0,4.725-1.8,5.355-3.646c0.135-0.404,0.18-0.854,0.18-1.26V28.047z"/>
	<path fill="#D8D8D8" d="M192.661,7.211v26.326c0,1.935,0.045,4.14,0.181,5.625h-3.556l-0.18-3.78h-0.09
		c-1.215,2.43-3.825,4.274-7.38,4.274c-5.266,0-9.36-4.455-9.36-11.07c-0.045-7.29,4.5-11.699,9.765-11.699
		c3.375,0,5.625,1.575,6.57,3.285h0.09V7.211H192.661z M188.701,26.246c0-0.539-0.045-1.17-0.18-1.709
		c-0.585-2.476-2.745-4.545-5.715-4.545c-4.096,0-6.525,3.6-6.525,8.37c0,4.455,2.205,8.1,6.436,8.1
		c2.654,0,5.085-1.799,5.805-4.725c0.135-0.539,0.18-1.08,0.18-1.71V26.246z"/>
	<path fill="#D8D8D8" d="M199.772,17.381l4.274,12.195c0.72,2.025,1.305,3.825,1.755,5.625h0.136c0.494-1.8,1.125-3.6,1.845-5.625
		l4.229-12.195h4.141l-8.551,21.781h-3.779l-8.28-21.781H199.772z"/>
	<path fill="#D8D8D8" d="M220.831,13.376c-1.484,0-2.475-1.17-2.475-2.565s1.035-2.52,2.564-2.52c1.53,0,2.521,1.125,2.521,2.52
		s-0.99,2.565-2.565,2.565H220.831z M218.941,39.162V17.381h3.96v21.781H218.941z"/>
	<path fill="#D8D8D8" d="M227.986,35.156c1.215,0.721,3.285,1.53,5.265,1.53c2.835,0,4.186-1.396,4.186-3.239
		c0-1.891-1.125-2.926-4.005-4.006c-3.96-1.439-5.806-3.555-5.806-6.165c0-3.51,2.88-6.39,7.516-6.39c2.205,0,4.14,0.585,5.31,1.35
		l-0.945,2.835c-0.854-0.495-2.43-1.26-4.455-1.26c-2.34,0-3.6,1.35-3.6,2.97c0,1.845,1.26,2.655,4.095,3.735
		c3.735,1.396,5.716,3.285,5.716,6.569c0,3.871-3.016,6.57-8.101,6.57c-2.385,0-4.59-0.63-6.12-1.529L227.986,35.156z"/>
	<path fill="#D8D8D8" d="M254.266,39.656c-5.851,0-10.44-4.32-10.44-11.205c0-7.29,4.815-11.564,10.8-11.564
		c6.255,0,10.485,4.545,10.485,11.16c0,8.1-5.625,11.609-10.8,11.609H254.266z M254.4,36.687c3.78,0,6.615-3.555,6.615-8.505
		c0-3.689-1.846-8.325-6.525-8.325c-4.635,0-6.66,4.32-6.66,8.46c0,4.77,2.7,8.37,6.525,8.37H254.4z"/>
	<path fill="#D8D8D8" d="M269.205,24.177c0-2.565-0.045-4.77-0.18-6.795h3.465l0.18,4.275h0.135c0.99-2.925,3.42-4.77,6.075-4.77
		c0.405,0,0.72,0.045,1.08,0.135v3.69c-0.45-0.045-0.854-0.09-1.395-0.09c-2.79,0-4.771,2.115-5.311,5.041
		c-0.09,0.584-0.135,1.215-0.135,1.89v11.61h-3.96L269.205,24.177z"/>
	<g>
		<g>
			<g>
				<path fill="#D8D8D8" d="M285.926,17.086c0.33-0.062,0.814-0.104,1.367-0.104c0.672,0,1.144,0.104,1.467,0.375
					c0.275,0.222,0.424,0.548,0.424,0.979c0,0.59-0.41,1-0.801,1.145v0.021c0.316,0.132,0.491,0.437,0.606,0.867
					c0.141,0.534,0.275,1.145,0.363,1.326h-1.05c-0.067-0.132-0.183-0.514-0.311-1.09c-0.128-0.589-0.323-0.742-0.747-0.749h-0.303
					v1.839h-1.017V17.086z M286.942,19.091h0.403c0.512,0,0.814-0.264,0.814-0.673c0-0.424-0.282-0.646-0.754-0.646
					c-0.249,0-0.391,0.014-0.464,0.035V19.091z"/>
			</g>
			<g>
				<path fill="#D8D8D8" d="M282.95,19.518c0,2.558,2.081,4.639,4.639,4.639c2.559,0,4.64-2.081,4.64-4.639s-2.081-4.639-4.64-4.639
					C285.031,14.879,282.95,16.96,282.95,19.518z M283.95,19.518c0-2.007,1.632-3.639,3.639-3.639s3.64,1.632,3.64,3.639
					s-1.633,3.639-3.64,3.639S283.95,21.525,283.95,19.518z"/>
			</g>
		</g>
	</g>
</g>
</svg>
