<?xml version="1.0" encoding="utf-8"?>
<!-- Generator: Adobe Illustrator 15.1.0, SVG Export Plug-In . SVG Version: 6.00 Build 0)  -->
<!DOCTYPE svg PUBLIC "-//W3C//DTD SVG 1.1//EN" "http://www.w3.org/Graphics/SVG/1.1/DTD/svg11.dtd">
<svg version="1.1" id="Livello_1" xmlns="http://www.w3.org/2000/svg" xmlns:xlink="http://www.w3.org/1999/xlink" x="0px" y="0px"
	 width="564.869px" height="166.28px" viewBox="0 0 564.869 166.28" enable-background="new 0 0 564.869 166.28"
	 xml:space="preserve">
<path fill="#A7A7A7" d="M82.637,36.914h26.711v14.058h0.264c2.813-5.623,6.152-9.29,10.018-11.922
	c3.866-2.641,8.731-3.992,14.592-3.992c1.521,0,3.083,0.048,4.605,0.162c1.524,0.122,2.855,0.339,4.261,0.688v24.083
	c-2.109-0.588-3.763-1.027-5.576-1.317c-1.816-0.291-3.743-0.442-5.732-0.442c-5.042,0-9.036,0.707-11.964,2.112
	c-2.927,1.401-5.186,3.37-6.773,5.886c-1.578,2.52-2.568,5.538-3.034,9.049c-0.471,3.519-0.661,7.384-0.661,11.606v35.785H82.637
	V36.914"/>
<path fill="#A7A7A7" d="M149.415,36.914h26.008v85.756h-26.008V36.914z M148.354,14.355c0-3.867,1.367-7.165,4.103-9.899
	c2.739-2.741,6.037-4.111,9.9-4.111c3.869,0,7.17,1.37,9.903,4.111c2.737,2.734,4.106,6.032,4.106,9.899
	c0,3.863-1.369,7.163-4.106,9.895c-2.733,2.745-6.034,4.112-9.903,4.112c-3.863,0-7.161-1.367-9.9-4.112
	C149.721,21.518,148.354,18.218,148.354,14.355"/>
<path fill="#A7A7A7" d="M320.625,85.415c-1.989,0-4.481-0.058-7.471,0.118c-2.987,0.179-5.859,0.605-8.61,1.423
	c-2.751,0.819-5.098,2.017-7.031,3.651c-1.932,1.646-2.898,3.907-2.898,6.839c0,3.166,1.347,5.498,4.044,7.021
	c2.692,1.52,5.504,2.282,8.433,2.282c2.578,0,5.069-0.354,7.471-1.061c2.403-0.703,4.54-1.699,6.415-2.99
	c1.875-1.287,3.433-2.923,4.551-4.92c1.107-1.99,1.727-4.331,1.727-7.032v-5.332H320.625 M327.254,112.126h-0.479
	c-2.929,4.219-6.827,7.707-11.682,9.695c-4.868,1.999-9.993,2.92-15.383,2.92c-3.983,0-7.819-0.592-11.512-1.706
	c-3.69-1.107-6.942-2.799-9.753-5.025c-2.812-2.227-5.04-4.989-6.68-8.272c-1.646-3.275-2.461-7.088-2.461-11.425
	c0-4.92,0.909-9.085,2.727-12.482c1.813-3.397,4.271-6.215,7.378-8.439c3.107-2.228,6.652-3.952,10.634-5.184
	c3.981-1.231,8.112-2.138,12.396-2.727c4.271-0.582,8.55-0.934,12.829-1.057c4.274-0.114,8.227-0.176,11.859-0.176
	c0-4.682-1.663-8.405-5.006-11.158c-3.338-2.754-7.296-4.129-11.865-4.129c-4.335,0-8.29,0.909-11.863,2.722
	c-3.574,1.819-6.767,4.31-9.578,7.471l-14.062-14.414c4.92-4.568,10.663-7.997,17.226-10.278c6.562-2.29,13.358-3.43,20.391-3.43
	c7.729,0,14.084,0.967,19.067,2.901c4.977,1.935,8.961,4.779,11.951,8.528c2.987,3.749,4.953,8.342,6.123,13.794
	c1.168,5.45,1.644,11.749,1.644,18.895v43.521h-23.899V112.126z"/>
<path fill="#A7A7A7" d="M474.103,79.853c0,6.442,1.675,11.659,5.009,15.639c3.345,3.984,8.033,5.974,14.077,5.974
	c6.045,0,10.731-1.989,14.069-5.974c3.339-3.98,5.014-9.197,5.014-15.639c0-6.443-1.675-11.659-5.014-15.644
	c-3.338-3.98-8.024-5.977-14.069-5.977c-6.044,0-10.732,1.997-14.077,5.977C475.777,68.194,474.103,73.41,474.103,79.853
	 M450.253,79.853c0-6.794,1.115-12.946,3.335-18.46c2.23-5.5,5.274-10.217,9.15-14.141c3.866-3.928,8.423-6.943,13.673-9.055
	c5.249-2.111,10.84-3.169,16.777-3.169c5.934,0,11.527,1.058,16.773,3.169c5.249,2.112,9.802,5.127,13.676,9.055
	c3.869,3.924,6.92,8.641,9.141,14.141c2.229,5.514,3.345,11.666,3.345,18.46c0,6.794-1.115,12.945-3.345,18.452
	c-2.221,5.511-5.271,10.228-9.141,14.149c-3.874,3.927-8.427,6.945-13.676,9.048c-5.246,2.111-10.84,3.169-16.773,3.169
	c-5.938,0-11.528-1.058-16.777-3.169c-5.25-2.103-9.807-5.121-13.673-9.048c-3.876-3.922-6.92-8.639-9.15-14.149
	C451.368,92.798,450.253,86.647,450.253,79.853"/>
<path fill="#A7A7A7" d="M551.176,59.818c-6.153,0-11.133-4.984-11.133-11.133c0-6.151,4.979-11.135,11.133-11.135
	c6.145,0,11.133,4.984,11.133,11.135C562.309,54.834,557.32,59.818,551.176,59.818 M551.176,34.993
	c-7.565,0-13.69,6.132-13.69,13.692c0,7.562,6.125,13.688,13.69,13.688c7.556,0,13.693-6.126,13.693-13.688
	C564.869,41.125,558.731,34.993,551.176,34.993"/>
<path fill="#A7A7A7" d="M552.979,45.951c0-0.329-0.062-0.617-0.19-0.854c-0.129-0.243-0.343-0.426-0.634-0.553
	c-0.204-0.093-0.438-0.149-0.693-0.172c-0.255-0.023-0.569-0.034-0.949-0.034H549.4v3.554h0.951c0.466,0,0.854-0.028,1.176-0.085
	c0.326-0.056,0.597-0.176,0.821-0.359c0.214-0.164,0.373-0.363,0.47-0.591C552.923,46.625,552.979,46.321,552.979,45.951
	 M558.319,55.109h-4.045l-3.684-4.842h-1.19v4.842h-3.299V41.906h5.316c0.731,0,1.37,0.051,1.912,0.141
	c0.548,0.093,1.048,0.278,1.514,0.571c0.468,0.298,0.845,0.683,1.125,1.146c0.276,0.463,0.417,1.052,0.417,1.772
	c0,1.01-0.228,1.826-0.687,2.46c-0.457,0.627-1.063,1.127-1.825,1.505L558.319,55.109z"/>
<path fill="#A7A7A7" d="M422.376,36.831v11.49h-0.396c-0.462-0.63-1.107-1.587-2.993-3.207c-2.49-2.138-4.307-3.149-6.767-4.51
	c-2.438-1.35-5.314-2.508-8.436-3.339c-3.117-0.82-7.135-1.494-10.896-1.494c-6.111,0-11.698,1.668-16.518,4.188
	c-4.82,2.527-8.349,5.096-11.569,9.372c-3.172,4.211-5.024,8.435-6.513,13.942c-1.486,5.499-1.858,11.829-1.858,17.471
	c0,6.464,0.975,12.59,2.554,18.13c1.587,5.573,4.146,10.6,7.458,14.395c3.602,4.13,7.301,6.263,12.474,8.439
	c5.174,2.175,10.674,2.964,17.026,2.896c4.021-0.044,7.929-0.93,12.443-2.669c5.503-2.12,9.348-6.085,10.863-8.228h0.306v8.312
	c0,6.112-1.334,11.135-5.148,15.073c-3.822,3.938-9.395,6.054-17.509,6.054c-5.403,0-8.801,0.11-14.299-1.375
	c-4.779-1.291-10.792-3.566-15.251-6.836l-12.826,18.825c6.837,4.95,13.019,7.997,20.438,9.963
	c7.346,1.944,14.869,2.558,22.508,2.558c16.694,0,28.509-4.203,36.682-12.611c8.169-8.401,11.501-20.72,11.501-36.947V36.831
	H422.376 M415.803,95.606c-3.349,3.997-8.052,5.995-14.113,5.995c-6.065,0-10.769-1.998-14.126-5.995
	c-3.345-3.994-5.024-9.228-5.024-15.691c0-6.465,1.68-11.698,5.024-15.697c3.357-3.994,8.061-5.998,14.126-5.998
	c6.062,0,10.765,2.004,14.113,5.998c3.353,3.999,5.031,9.232,5.031,15.697C420.834,86.379,419.155,91.612,415.803,95.606"/>
<path fill="#A7A7A7" d="M75.608,58.001H49.6v28.708c0,2.342,0.29,4.479,0.548,6.415c0.257,1.928,0.92,3.599,1.821,5.008
	c0.9,1.407,2.326,2.489,4.197,3.247c1.87,0.764,4.374,1.143,7.468,1.143c1.543,0,3.664-0.141,6.179-0.437
	c2.515-0.293,4.389-0.97,5.795-2.018v21.964c-3.515,1.054-6.653,1.758-10.137,2.112c-3.476,0.351-6.933,0.526-10.284,0.526
	c-4.906,0-9.433-0.465-13.553-1.406c-4.128-0.933-7.746-2.431-10.839-4.48c-3.097-2.049-5.588-4.716-7.328-7.998
	c-1.736-3.283-2.687-7.261-2.687-11.95V58.001H2.504V36.914H20.78V11.608H49.6v25.305h26.008V58.001"/>
<polygon fill="#A7A7A7" points="178.878,36.914 207.352,36.914 228.973,95.256 229.321,95.256 249.361,36.914 275.899,36.914 
	242.151,122.67 214.206,122.67 "/>
</svg>
